<svg width="52" height="52" viewBox="0 0 52 52" fill="none" xmlns="http://www.w3.org/2000/svg">
<circle cx="26" cy="26" r="26" fill="#F50E30"/>
<g clip-path="url(#clip0_6483_484)">
<g clip-path="url(#clip1_6483_484)">
<path d="M18.7148 15.1377L19.6894 16.1088V12.6992H16.7402V16.1088L17.7148 15.1377C17.8529 15.0003 18.0342 14.9309 18.2148 14.9309C18.3954 14.9309 18.5768 15.0003 18.7148 15.1377Z" fill="white"/>
<path d="M26.0498 13.407C26.0498 13.0167 25.7381 12.6987 25.3415 12.6987H21.1061V17.8124C21.1061 18.1027 20.9361 18.357 20.667 18.4703C20.582 18.5057 20.4899 18.5206 20.3979 18.5206C20.2137 18.5206 20.0366 18.4491 19.895 18.3152L18.2164 16.6367L16.5308 18.3152C16.3324 18.5206 16.0279 18.5773 15.7588 18.4703C15.4967 18.357 15.3267 18.1027 15.3267 17.8124V12.6987H11.0843C10.6947 12.6987 10.376 13.0167 10.376 13.407V21.3317H16.2687L15.9429 21.0059C15.6667 20.7304 15.6667 20.2842 15.9429 20.0073C16.2191 19.7318 16.6653 19.7318 16.9416 20.0073L18.4785 21.5371C18.5422 21.6008 18.5918 21.6795 18.6343 21.7716C18.7051 21.9415 18.7051 22.1398 18.6343 22.3091C18.5918 22.3941 18.5422 22.4727 18.4785 22.5428L16.9416 24.0734C16.807 24.215 16.6228 24.2787 16.4458 24.2787C16.2616 24.2787 16.0775 24.215 15.9429 24.0734C15.6667 23.7971 15.6667 23.351 15.9429 23.074L16.2687 22.7482H10.376V27.4234H26.0498V13.407Z" fill="white"/>
<path d="M40.7178 28.8398H9.7102C9.32067 28.8398 9.00195 29.1578 9.00195 29.5481V35.1851C9.00195 35.5747 9.32067 35.8934 9.7102 35.8934H11.9979C11.9979 33.2303 14.1581 31.0701 16.8211 31.0701C19.4771 31.0701 21.6444 33.2303 21.6444 35.8934H30.363C30.363 33.2303 32.5233 31.0701 35.1863 31.0701C37.8423 31.0701 40.0096 33.2303 40.0096 35.8934H42.2902C42.6868 35.8934 42.9984 35.5747 42.9984 35.1851V31.1268C42.9984 29.8661 41.9785 28.8398 40.7178 28.8398Z" fill="white"/>
<path d="M41.2423 20.8996C41.2423 20.7437 41.1927 20.595 41.1006 20.4675L37.6656 15.9771C37.531 15.8001 37.3256 15.6938 37.106 15.6938H28.012C27.6224 15.6938 27.3037 16.0126 27.3037 16.4021V27.4226H41.2423V20.8996ZM38.0905 22.8544C38.0905 23.2439 37.7718 23.5626 37.3822 23.5626H31.1637C30.7742 23.5626 30.4555 23.2439 30.4555 22.8544V18.8527C30.4555 18.4561 30.7742 18.1444 31.1637 18.1444H35.5408C35.7674 18.1444 35.9728 18.2436 36.1074 18.4207L37.9418 20.8287C38.0409 20.9492 38.0905 21.105 38.0905 21.2607V22.8544Z" fill="white"/>
<path d="M35.1857 32.4854C33.3039 32.4854 31.7783 34.0109 31.7783 35.8935C31.7783 37.7754 33.3039 39.3016 35.1857 39.3016C37.0683 39.3016 38.5939 37.7754 38.5939 35.8935C38.5939 34.0109 37.0683 32.4854 35.1857 32.4854Z" fill="white"/>
<path d="M17.6084 39.1993C19.4398 38.7664 20.5735 36.9308 20.1406 35.0994C19.7077 33.268 17.8721 32.1343 16.0407 32.5672C14.2093 33.0001 13.0756 34.8357 13.5085 36.6671C13.9414 38.4985 15.777 39.6322 17.6084 39.1993Z" fill="white"/>
</g>
</g>
<defs>
<clipPath id="clip0_6483_484">
<rect width="36" height="36" fill="white" transform="translate(8 8)"/>
</clipPath>
<clipPath id="clip1_6483_484">
<rect width="36" height="36" fill="white" transform="translate(8 8)"/>
</clipPath>
</defs>
</svg>
